<svg width="90.14851" height="100.5738625" xmlns="http://www.w3.org/2000/svg">
 <title>Безымянный-70</title>

 <g>
  <title>background</title>
  <rect fill="none" id="canvas_background" height="402" width="582" y="-1" x="-1"/>
 </g>
 <g>
  <title>Layer 1</title>
  <path stroke="#ffffff" id="svg_1" d="m82.40411,37.43054a67.16549,67.16549 0 0 1 4.58068,5.88356a16.71336,16.71336 0 0 1 1.56194,14.1552a27.01246,27.01246 0 0 1 -4.95878,9.60738c-1.95449,2.35467 -1.27947,5.19232 1.46731,6.56327a14.09268,14.09268 0 0 0 3.30946,1.47177c0.71247,0.15138 1.4509,0.554 1.44771,1.36645a2.18755,2.18755 0 0 1 -1.03642,1.77887a10.396,10.396 0 0 1 -4.91819,1.90865a20.55635,20.55635 0 0 1 -9.24985,-1.11459a5.52135,5.52135 0 0 0 -4.0889,0.04422a27.26511,27.26511 0 0 1 -13.07583,0.99825c-0.70212,-0.10752 -1.409,-0.18827 -2.11582,-0.26035a36.54523,36.54523 0 0 1 -12.62657,-3.7424c-4.57145,-2.2735 -7.60581,-6.09346 -10.06422,-10.42928a14.86363,14.86363 0 0 1 -1.92689,-6.50216a19.52743,19.52743 0 0 1 0.46467,-4.88059c0.19432,-1.01817 0.13106,-1.6957 -1.09777,-1.70234c-3.58022,-0.01918 -6.64428,-1.98026 -10.04871,-2.674a4.04862,4.04862 0 0 1 -2.66628,-1.6632a2.36986,2.36986 0 0 0 -2.61523,-0.97076c-0.70527,0.09754 -1.40793,0.22487 -2.10441,0.37326c-3.00372,0.6401 -6.07207,0.76388 -9.10693,1.15392c-0.494,0.06351 -1.06515,0.19157 -1.3988,-0.26052c-0.48391,-0.65562 0.24713,-0.98832 0.51229,-1.44072c0.104,-0.17751 0.19557,-0.36223 0.35089,-0.652a11.2008,11.2008 0 0 0 -2.69152,-0.52333c-0.67549,-0.13972 -0.75392,-0.56724 -0.535,-1.11576a4.35136,4.35136 0 0 1 1.39794,-1.58269q3.88536,-3.35286 7.75721,-6.72128a2.22639,2.22639 0 0 0 0.86246,-2.18746a23.58774,23.58774 0 0 1 6.05069,-18.93873c4.93257,-5.522 11.22,-8.93778 18.053,-11.42062a72.95239,72.95239 0 0 1 16.18611,-3.76238a31.62,31.62 0 0 1 9.16588,0.35c3.70476,0.63761 7.47721,1.11233 11.00927,2.52269c6.91246,2.76019 12.13421,7.13168 14.76325,14.43034a22.54154,22.54154 0 0 1 0.5405,14.42571l-3.15514,5.51162zm-80.55332,6.95718a0.90544,0.90544 0 0 0 0.901,0.50717a50.15668,50.15668 0 0 0 12.32452,-1.00071a1.75924,1.75924 0 0 1 1.7401,0.30542a19.52086,19.52086 0 0 0 4.0298,2.40061a21.56847,21.56847 0 0 0 10.13205,2.2147a3.52313,3.52313 0 0 0 3.1845,-1.69586a18.05728,18.05728 0 0 1 4.72884,-4.88429a70.39622,70.39622 0 0 1 11.8553,-6.75631a28.25231,28.25231 0 0 1 9.48244,-3.09178c6.21264,-0.67063 12.24578,-0.34734 17.93172,2.4913a1.5987,1.5987 0 0 0 2.23173,-0.39a17.13449,17.13449 0 0 0 3.303,-5.19028a17.03738,17.03738 0 0 0 -0.00586,-11.90659a19.04636,19.04636 0 0 0 -6.78777,-9.3718a27.44443,27.44443 0 0 0 -8.27167,-4.387c-1.9823,-0.6218 -4.03864,-0.86949 -6.04,-1.37755a40.41269,40.41269 0 0 0 -18.43909,0.01035a62.69068,62.69068 0 0 0 -9.25283,2.53331c-6.59618,2.47858 -12.80945,5.54023 -17.71752,10.79808a22.24588,22.24588 0 0 0 -6.19067,18.19737a2.97433,2.97433 0 0 1 -1.006,2.96269a11.1754,11.1754 0 0 0 -1.0456,1.07007c-2.16746,2.364 -4.67538,4.36705 -7.08799,6.5611zm85.00356,32.466c-0.31775,-0.534 -0.85818,-0.49088 -1.336,-0.52088a4.76179,4.76179 0 0 1 -3.29841,-1.7833a16.07186,16.07186 0 0 1 -2.45516,-3.97992a2.39928,2.39928 0 0 1 0.67217,-3.17876c4.62032,-4.28481 7.49686,-9.44932 7.32186,-15.9531c-0.06484,-2.40972 0.05172,-4.93521 -1.44653,-6.99623a32.54969,32.54969 0 0 0 -4.4158,-5.44143a21.29348,21.29348 0 0 0 -11.19812,-5.33387c-6.58171,-0.99813 -12.86521,-0.5562 -18.89834,2.56727c-2.83923,1.46994 -5.7304,2.84622 -8.50423,4.43931a23.03808,23.03808 0 0 0 -8.364,7.47335a18.076,18.076 0 0 0 -2.86027,11.18908a15.92857,15.92857 0 0 0 2.19141,6.64863c1.12981,1.99364 2.94335,3.35157 4.4882,4.943c2.98042,3.07023 7.01732,4.24723 10.93026,5.5143a17.80136,17.80136 0 0 0 7.57334,1.00793c1.90791,-0.22026 3.85062,-0.147 5.75556,-0.38371c3.24081,-0.40275 6.5641,-0.22654 9.709,-1.31465a1.18164,1.18164 0 0 1 1.17589,0.23887c3.48894,2.48316 7.4187,2.06572 11.33419,1.68535a2.15689,2.15689 0 0 0 1.62498,-0.82122l0,-0.00002z"/>
  <path stroke="#000" id="svg_4" d="m61.134048,51.391469c6.081326,-12.994249 29.90816,0 0,16.706892c-29.90816,-16.706892 -6.081326,-29.701142 0,-16.706892z" stroke-width="1.5" fill="#ff009d"/>
  <path id="svg_6" d="m46.66912,16.9696c6.08132,-12.40361 29.90816,0 0,15.94749c-29.90817,-15.94749 -6.08133,-28.3511 0,-15.94749z" stroke-opacity="null" stroke-width="1.5" stroke="#000" fill="#ff009d"/>
 </g>
</svg>