<svg xmlns="http://www.w3.org/2000/svg" data-name="Слой 1" viewBox="0 0 100 125" x="0px" y="0px"><title>ШКОЛА - без глазок - БЕЗ ОБВОДОК на артбордах</title><path d="M84.96484,56.25391H15.03516A8.80969,8.80969,0,0,1,6.23535,47.4541v-18.291a8.80969,8.80969,0,0,1,8.79981-8.79981H84.96484a8.80969,8.80969,0,0,1,8.79981,8.79981v18.291A8.80969,8.80969,0,0,1,84.96484,56.25391ZM15.03516,22.0625a7.10842,7.10842,0,0,0-7.09961,7.10059v18.291a7.10842,7.10842,0,0,0,7.09961,7.10059H84.96484a7.10842,7.10842,0,0,0,7.09961-7.10059v-18.291a7.10842,7.10842,0,0,0-7.09961-7.10059Z"/><path d="M11.1748,47.85449a.65006.65006,0,0,1-.6499-.65039V30.73828a6.28111,6.28111,0,0,1,6.27393-6.27441H26.0835a.65039.65039,0,0,1,0,1.30078H16.79883a4.9791,4.9791,0,0,0-4.97412,4.97363V47.2041A.65006.65006,0,0,1,11.1748,47.85449Z"/><path d="M75.876,65.74219a15.22025,15.22025,0,0,1-4.62012-.63574c-2.11523-.70508-2.55957-1.79493-2.55957-2.58594,0-.79.44434-1.88086,2.561-2.585a15.237,15.237,0,0,1,4.62256-.63672c3.312,0,7.18018.84375,7.18018,3.22168S79.18994,65.74219,75.876,65.74219Zm.0039-4.74317c-3.39746,0-5.4834.88575-5.4834,1.52149S72.481,64.042,75.876,64.042c3.39746,0,5.48388-.88574,5.48388-1.52148,0-.3086-.54834-.68946-1.39648-.97266A13.72413,13.72413,0,0,0,75.87988,60.999Z"/><path d="M81.15283,73.3877a8.49557,8.49557,0,0,1-3.18066-.55469c-1.58252-.66211-1.81885-1.69336-1.81885-2.249s.23633-1.58691,1.81982-2.249c2.62989-1.10058,8.18165-.62012,8.18165,2.249C86.15479,72.52051,83.64258,73.3877,81.15283,73.3877Zm.00244-3.90723c-2.04589,0-3.30175.64258-3.30175,1.10351s1.25537,1.10352,3.29931,1.10352c2.0459,0,3.30176-.64258,3.30176-1.10352,0-.331-.59277-.60449-.77441-.68066A6.88813,6.88813,0,0,0,81.15527,69.48047Z"/><path d="M85.98291,79.63672a5.659,5.659,0,0,1-2.14453-.38086,1.86606,1.86606,0,0,1-1.34326-1.72461c0-1.2793,1.36963-2.10547,3.48877-2.10547,2.11865,0,3.48779.82617,3.48779,2.10547S88.10205,79.63672,85.98291,79.63672Zm.001-2.51074a2.71783,2.71783,0,0,0-1.79883.44726,3.73477,3.73477,0,0,0,1.79639.36328,3.06291,3.06291,0,0,0,1.76464-.40625,3.01308,3.01308,0,0,0-1.76074-.40429Z"/><path d="M81.1543,25.76465H32.25a.65039.65039,0,0,1,0-1.30078H81.1543a.65039.65039,0,0,1,0,1.30078Z"/><text x="0" y="115" fill="#000000" font-size="5px" font-weight="bold" font-family="'Helvetica Neue', Helvetica, Arial-Unicode, Arial, Sans-serif">Created by Maria Zamchy</text><text x="0" y="120" fill="#000000" font-size="5px" font-weight="bold" font-family="'Helvetica Neue', Helvetica, Arial-Unicode, Arial, Sans-serif">from the Noun Project</text></svg>